<svg version="1.1" id="Layer_1" xmlns="http://www.w3.org/2000/svg" xmlns:xlink="http://www.w3.org/1999/xlink" x="0px" y="0px"
	 width="100%" viewBox="0 0 1024 1024" enable-background="new 0 0 1024 1024" xml:space="preserve">
<path fill="#112127" opacity="1.000000" stroke="none" 
	d="
M970.000000,1.000000 
	C988.331482,1.000000 1006.662903,1.000000 1024.995850,1.000000 
	C1024.997192,342.296783 1024.997192,683.593567 1024.997192,1024.945190 
	C683.737854,1024.945190 342.475739,1024.945190 1.106797,1024.945190 
	C1.106797,683.772583 1.106797,342.545074 1.106797,1.000000 
	C308.029297,1.000000 615.058716,1.000000 922.544189,1.431243 
	C924.109680,9.054741 924.948975,16.302839 926.420715,23.420174 
	C927.450562,28.400507 932.565125,31.508324 937.847778,30.928766 
	C943.718506,30.284704 948.436096,27.463041 952.385498,23.059008 
	C955.465393,19.624603 958.855164,16.463541 962.170349,13.246009 
	C965.750916,9.770976 969.723450,6.575572 970.000000,1.000000 
M782.285828,605.582092 
	C782.058411,602.353699 781.830994,599.125244 781.336060,595.015564 
	C781.414978,590.717468 781.493896,586.419434 782.265808,581.582275 
	C782.509216,576.579773 782.874268,571.578125 782.909302,566.574158 
	C782.917908,565.344910 781.849243,564.108154 780.757996,562.365417 
	C777.153564,562.365417 773.549194,562.365417 769.715576,562.365417 
	C769.715576,583.893616 769.715576,605.249878 769.715576,626.681030 
	C773.696167,626.681030 777.289001,626.681030 781.616516,626.681030 
	C781.616516,619.650085 781.616516,612.878052 782.285828,605.582092 
M509.495148,338.840881 
	C494.111267,338.840881 478.727356,338.840881 463.457825,338.840881 
	C463.457825,394.503296 463.457825,449.401245 463.457825,504.563538 
	C467.791565,504.563538 471.725037,504.563538 476.422913,504.563538 
	C476.422913,453.856537 476.422913,403.315643 476.422913,351.610413 
	C493.114777,352.160767 509.192810,351.435425 524.878174,353.580841 
	C538.993835,355.511505 548.134766,365.550262 551.785095,379.412842 
	C555.272949,392.658569 552.390076,404.711243 542.822876,415.273651 
	C526.622803,404.084503 508.538300,405.958038 490.465454,406.245819 
	C490.465454,410.883209 490.465454,415.072083 490.465454,419.330627 
	C505.026672,421.026550 520.330811,415.940399 533.577087,426.349762 
	C527.304749,431.676636 520.354004,433.897430 512.692627,434.031494 
	C505.262695,434.161530 497.828766,434.059723 490.396027,434.059723 
	C490.396027,439.047729 490.396027,443.126434 490.396027,447.133820 
	C508.362183,450.416473 526.612305,446.492371 544.659912,435.464600 
	C545.822388,436.975830 547.169250,438.428986 548.180359,440.086853 
	C559.833557,459.193085 548.953674,484.127167 526.013062,489.795868 
	C519.514587,491.401642 512.482788,490.949768 505.686768,491.217041 
	C500.602142,491.416992 495.503326,491.256470 490.478455,491.256470 
	C490.478455,496.119659 490.478455,500.198364 490.478455,503.739227 
	C502.621277,503.739227 514.623169,505.234100 526.109497,503.436005 
	C552.066711,499.372589 568.708984,476.337830 565.923340,450.334991 
	C564.865479,440.459930 560.154114,432.076935 554.161682,424.576630 
	C556.606934,420.291962 559.121765,416.353760 561.184448,412.191467 
	C571.166199,392.049042 567.615295,369.215546 552.003845,353.613953 
	C540.547119,342.164398 526.348694,338.093231 509.495148,338.840881 
M588.837646,589.266968 
	C595.282654,576.779114 589.720093,563.370972 576.735107,562.255676 
	C564.878052,561.237183 552.864685,562.039734 540.802246,562.039734 
	C540.802246,583.836853 540.802246,605.324036 540.802246,627.046814 
	C551.597412,627.046814 561.908264,627.050659 572.219055,627.042908 
	C573.883240,627.041687 575.552612,627.063965 577.210693,626.947632 
	C589.281677,626.100952 596.897888,616.621948 594.020203,604.939514 
	C592.914185,600.449402 589.555359,596.514221 586.863098,591.679810 
	C586.752075,591.811584 587.575928,590.833740 588.837646,589.266968 
M296.727661,581.998718 
	C297.299561,570.650085 291.960602,562.813599 281.729797,562.178406 
	C269.822662,561.439087 257.834412,562.005920 245.542496,562.005920 
	C245.542496,583.772156 245.542496,605.152771 245.542496,626.767822 
	C258.477020,626.767822 271.153961,627.533447 283.693481,626.548889 
	C295.830017,625.596008 302.523651,614.247681 298.435028,602.765503 
	C297.074982,598.945984 293.826965,595.798706 291.560944,592.516357 
	C293.028870,589.666992 294.793549,586.241577 296.727661,581.998718 
M723.215271,593.629761 
	C723.649536,592.021423 723.592163,589.954163 724.596619,588.878174 
	C731.977417,580.971863 739.580017,573.272888 747.083435,565.480469 
	C747.923157,564.608459 748.580322,563.560547 749.751526,562.034729 
	C746.618652,562.034729 744.274414,562.303711 742.015259,561.979675 
	C737.061646,561.269043 733.656982,563.289185 730.449768,566.938599 
	C723.420715,574.936890 716.046326,582.632385 708.782410,590.423035 
	C707.975525,591.288452 706.970032,591.968628 705.116089,593.523560 
	C705.116089,582.310913 705.116089,572.278870 705.116089,562.283203 
	C700.913391,562.283203 697.332214,562.283203 693.728027,562.283203 
	C693.728027,583.969482 693.728027,605.331848 693.728027,626.628174 
	C697.722717,626.628174 701.292419,626.628174 705.006531,626.628174 
	C705.871033,617.179077 701.908875,606.362793 714.093323,600.815674 
	C720.741760,608.412354 727.585571,616.329895 734.574280,624.117493 
	C735.681213,625.350952 737.381348,626.649170 738.911255,626.790283 
	C742.951721,627.162964 747.049377,626.916443 752.483826,626.916443 
	C742.332520,615.342712 733.053284,604.763306 723.215271,593.629761 
M659.684631,587.638000 
	C656.664551,580.444153 653.391235,573.342346 650.726807,566.019104 
	C649.307190,562.117249 646.825195,561.714111 643.427612,561.967834 
	C639.967346,562.226440 636.634766,561.104431 634.686462,566.069397 
	C627.288513,584.921875 619.287720,603.537598 611.539368,622.253113 
	C610.986511,623.588501 610.651611,625.014160 610.196716,626.456726 
	C621.502502,627.958862 621.502441,627.958862 625.442871,618.029358 
	C625.749390,617.256958 626.117004,616.503235 626.356201,615.710571 
	C627.195435,612.929138 628.899597,611.915710 631.907593,612.030273 
	C638.385132,612.277100 644.908569,612.491272 651.355347,611.983826 
	C656.025330,611.616272 658.069580,613.338318 659.648926,617.525024 
	C663.482361,627.687073 663.678528,627.615417 674.570068,626.876770 
	C674.875122,626.856079 675.168518,626.663208 675.849548,626.406616 
	C670.549255,613.711121 665.255005,601.030090 659.684631,587.638000 
M330.906281,616.335693 
	C331.677490,613.042603 333.695923,611.868591 337.082031,612.100952 
	C340.888428,612.362000 344.811859,612.612854 348.539673,611.995117 
	C358.445343,610.353638 365.145081,613.007263 367.019806,623.825562 
	C367.224213,625.005127 368.995758,626.622803 370.204803,626.781006 
	C373.388580,627.197571 376.662903,626.921875 380.216187,626.921875 
	C379.929474,625.614136 379.883026,624.949829 379.641479,624.366211 
	C371.577087,604.883728 363.307709,585.482727 355.537781,565.883728 
	C353.453674,560.626892 349.651642,562.363708 346.152130,561.954773 
	C342.819214,561.565247 340.784058,562.488342 339.375275,565.980774 
	C333.475281,580.607056 327.199493,595.081360 321.110168,609.631775 
	C318.777924,615.204590 316.576080,620.832031 314.238647,626.623230 
	C326.523010,627.519104 326.523010,627.519104 330.906281,616.335693 
M446.472534,596.848938 
	C442.186798,586.571472 437.711670,576.366760 433.719543,565.976501 
	C432.350037,562.412109 430.268768,561.582947 426.954071,561.909180 
	C423.562500,562.242981 419.972595,560.749146 418.018555,565.776794 
	C412.000244,581.261475 405.391144,596.515991 399.063202,611.881165 
	C397.118408,616.603516 395.339722,621.394226 393.451782,626.238708 
	C404.476166,628.255615 404.805725,628.084961 408.611481,618.806824 
	C409.052887,617.730713 409.615173,616.694641 409.957153,615.589172 
	C410.824036,612.786926 412.513031,611.899536 415.530945,612.032776 
	C422.010498,612.318970 428.536774,612.431458 434.997162,611.966187 
	C439.479218,611.643433 441.342804,613.422913 442.846161,617.376587 
	C446.834473,627.865356 447.013214,627.798096 458.059326,626.744629 
	C458.204254,626.730713 458.339111,626.611084 458.865356,626.346130 
	C454.858124,616.764221 450.836578,607.148193 446.472534,596.848938 
M477.047913,576.507690 
	C477.047913,593.264038 477.047913,610.020325 477.047913,626.716919 
	C492.355133,626.716919 506.933350,626.716919 521.560852,626.716919 
	C521.560852,623.125977 521.560852,619.902161 521.560852,616.192139 
	C510.627991,616.192139 500.050323,616.192139 488.885803,616.192139 
	C488.885803,597.968262 488.885803,580.234375 488.885803,562.355225 
	C484.712708,562.355225 481.141144,562.355225 477.054443,562.355225 
	C477.054443,566.928894 477.054443,571.220703 477.047913,576.507690 
M495.624725,365.945312 
	C494.013580,366.050415 492.402405,366.155518 490.531677,366.277557 
	C490.531677,374.948914 490.531677,383.279816 490.531677,391.913361 
	C494.566376,391.913361 498.204437,392.090027 501.805573,391.803406 
	C502.855927,391.719788 504.640381,390.339081 504.663940,389.512360 
	C504.884338,381.782013 504.794556,374.042786 504.794556,365.937561 
	C501.494080,365.937561 499.028290,365.937561 495.624725,365.945312 
M411.530396,674.101440 
	C412.333649,676.286255 412.989288,678.543701 414.012207,680.620361 
	C414.426392,681.461121 415.587738,682.273010 416.510925,682.409607 
	C417.172821,682.507629 418.462585,681.608948 418.688782,680.903687 
	C420.947998,673.858765 423.044495,666.761658 425.186859,659.679260 
	C424.701508,659.467590 424.216156,659.255981 423.730804,659.044312 
	C417.631409,662.394958 420.208344,670.418762 415.849365,675.468994 
	C414.206635,670.824951 412.755798,666.458801 411.083313,662.179260 
	C410.659790,661.095642 409.529572,660.288208 408.724121,659.353882 
	C407.939667,660.300049 406.828461,661.126038 406.428314,662.213623 
	C404.845398,666.515869 403.485229,670.900146 401.654846,676.423950 
	C400.301331,672.163696 399.345184,669.184326 398.408325,666.198853 
	C396.420105,659.863342 396.424164,659.862061 392.632111,659.855042 
	C394.571198,666.482300 396.386383,672.993774 398.439575,679.429321 
	C398.824249,680.635071 400.161011,681.536926 401.058441,682.578979 
	C402.081329,681.489441 403.498199,680.569153 404.052856,679.278381 
	C405.684052,675.482361 406.973053,671.539368 408.843079,666.433228 
	C409.945404,669.672974 410.575562,671.525085 411.530396,674.101440 
M457.411346,665.759583 
	C457.411346,671.188477 457.411346,676.617371 457.411346,682.336975 
	C461.793854,682.336975 465.510468,682.835144 469.007904,682.174011 
	C471.644440,681.675598 475.170624,680.256470 476.155090,678.213257 
	C477.158508,676.130737 475.539581,672.784668 475.068817,669.991821 
	C477.483215,663.018127 475.391144,659.541382 467.375671,659.375732 
	C465.880920,659.344788 464.356110,659.597656 462.893799,659.385071 
	C458.550323,658.753784 456.588440,660.351868 457.411346,665.759583 
M594.255920,678.668213 
	C597.640381,673.002075 597.918884,667.667297 594.713867,663.818298 
	C589.464172,657.513611 582.454895,659.944275 575.912415,659.336121 
	C575.912415,667.538513 575.912415,674.785950 575.912415,682.562317 
	C582.216125,682.033936 588.518433,683.989441 594.255920,678.668213 
M439.216614,669.098206 
	C433.581085,669.170898 437.065491,665.465698 436.251160,662.981140 
	C440.759918,662.981140 444.707367,662.981140 448.646606,662.981140 
	C448.674103,659.119507 441.749634,657.985718 432.738068,660.194092 
	C432.738068,667.468994 432.738068,674.828735 432.738068,682.464966 
	C437.788483,682.464966 442.429535,682.548218 447.062683,682.393372 
	C447.969025,682.363098 448.844482,681.409546 449.734161,680.881836 
	C448.754944,680.291870 447.803467,679.256104 446.791504,679.193115 
	C443.366760,678.980225 439.920624,679.111938 436.358643,679.111938 
	C436.358643,676.523254 436.358643,674.642029 436.358643,672.816284 
	C445.502991,671.433838 445.502991,671.433838 445.596039,669.098816 
	C443.783051,669.098816 441.976257,669.098816 439.216614,669.098206 
M637.732910,662.810791 
	C636.974426,662.171753 636.277649,661.435120 635.447327,660.909607 
	C630.423889,657.730591 623.882446,658.508301 619.983215,662.698059 
	C616.251709,666.707825 615.843811,673.965759 619.102417,678.372253 
	C622.355164,682.770691 628.572632,684.248840 633.891968,681.888184 
	C640.894409,678.780640 642.703613,671.019165 637.732910,662.810791 
M499.054962,677.140625 
	C496.122162,678.185486 496.019958,679.858521 498.702423,681.013123 
	C501.222504,682.097717 504.072784,682.813843 506.806946,682.916565 
	C511.990662,683.111389 515.496521,680.539795 515.672729,676.789490 
	C515.893494,672.093201 512.498718,670.665222 508.767883,669.677612 
	C507.965698,669.465210 507.016266,669.461304 506.386993,669.009766 
	C504.622498,667.743225 502.989868,666.293091 501.305206,664.915344 
	C503.636353,664.108337 505.930756,663.142639 508.320679,662.589478 
	C509.053589,662.419800 510.007721,663.526184 510.934052,663.781982 
	C511.866058,664.039307 512.889526,663.965149 513.872925,664.036316 
	C513.494324,662.945374 513.337158,661.078125 512.699280,660.896179 
	C509.750061,660.054932 506.654419,659.192444 503.635620,659.271240 
	C500.213806,659.360657 497.626495,661.438049 497.372986,665.186096 
	C497.118378,668.950745 499.472046,670.956909 502.810181,671.925537 
	C504.720703,672.479858 506.842224,672.503540 508.595184,673.339600 
	C509.903748,673.963745 510.774323,675.506104 511.839905,676.639526 
	C510.476044,677.624817 509.061157,679.488037 507.758942,679.412354 
	C505.061096,679.255676 502.423065,678.068481 499.054962,677.140625 
M566.271973,677.342407 
	C566.510132,672.234741 566.827698,667.128296 566.907104,662.018188 
	C566.920166,661.179321 565.886230,660.324280 565.336121,659.476685 
	C564.643433,660.354309 563.401917,661.203003 563.353882,662.114685 
	C563.153442,665.918884 563.366882,669.742676 563.322693,673.558105 
	C563.281006,677.156616 561.357178,679.076538 557.770996,679.200684 
	C554.015808,679.330811 551.731873,677.639038 551.585754,673.713928 
	C551.443848,669.901489 551.549316,666.075073 551.262146,662.276306 
	C551.193298,661.366150 549.998596,660.541016 549.321655,659.676819 
	C548.813110,660.521179 547.912292,661.344482 547.865601,662.213623 
	C547.688049,665.523132 547.897644,668.852356 547.754089,672.165161 
	C547.557861,676.694458 548.621704,680.425903 553.333496,682.138306 
	C558.051086,683.852966 562.605652,682.374512 566.271973,677.342407 
M490.096649,474.105225 
	C490.699615,474.937256 491.267456,476.456909 491.911255,476.489807 
	C496.141479,476.705902 500.388092,476.601257 504.524841,476.601257 
	C504.524841,471.479462 504.524841,467.234894 504.524841,462.824951 
	C499.587372,462.824951 495.026917,462.824951 490.085999,462.824951 
	C490.085999,466.563141 490.085999,469.877747 490.096649,474.105225 
M525.141907,659.512268 
	C523.968140,660.050720 522.794434,660.589172 521.620667,661.127686 
	C523.949158,662.052612 526.277649,662.977539 528.777832,663.970642 
	C528.777832,668.758789 528.669556,673.917175 528.860229,679.064392 
	C528.903442,680.230896 529.984619,681.358887 530.588013,682.504578 
	C531.213501,681.390137 532.337708,680.293884 532.379211,679.158081 
	C532.571960,673.887878 532.464539,668.606812 532.464539,662.903625 
	C534.287292,662.903625 535.644653,663.158569 536.842407,662.830627 
	C538.001831,662.513184 538.997009,661.595947 540.064331,660.942139 
	C539.040100,660.422791 538.031982,659.498718 536.988770,659.457275 
	C533.337158,659.312317 529.673401,659.471802 525.141907,659.512268 
M608.891479,664.811401 
	C608.889465,664.311951 609.040833,663.745422 608.856995,663.325562 
	C608.286560,662.022766 607.588684,660.775757 606.940308,659.507141 
	C606.289124,660.785400 605.125610,662.044189 605.075928,663.345398 
	C604.866577,668.831116 604.900024,674.332336 605.076660,679.820496 
	C605.106873,680.758972 606.267273,681.661194 606.905518,682.580139 
	C607.541748,681.626282 608.682190,680.696106 608.728333,679.714539 
	C608.946716,675.062317 608.866638,670.395996 608.891479,664.811401 
z"/>
<path fill="#091519" opacity="1.000000" stroke="none" 
	d="
M969.531372,1.000000 
	C969.723450,6.575572 965.750916,9.770976 962.170349,13.246009 
	C958.855164,16.463541 955.465393,19.624603 952.385498,23.059008 
	C948.436096,27.463041 943.718506,30.284704 937.847778,30.928766 
	C932.565125,31.508324 927.450562,28.400507 926.420715,23.420174 
	C924.948975,16.302839 924.109680,9.054741 923.000122,1.431243 
	C938.354248,1.000000 953.708435,1.000000 969.531372,1.000000 
z"/>
<path fill="#4399BA" opacity="1.000000" stroke="none" 
	d="
M509.993774,338.841064 
	C526.348694,338.093231 540.547119,342.164398 552.003845,353.613953 
	C567.615295,369.215546 571.166199,392.049042 561.184448,412.191467 
	C559.121765,416.353760 556.606934,420.291962 554.161682,424.576630 
	C560.154114,432.076935 564.865479,440.459930 565.923340,450.334991 
	C568.708984,476.337830 552.066711,499.372589 526.109497,503.436005 
	C514.623169,505.234100 502.621277,503.739227 490.478455,503.739227 
	C490.478455,500.198364 490.478455,496.119659 490.478455,491.256470 
	C495.503326,491.256470 500.602142,491.416992 505.686768,491.217041 
	C512.482788,490.949768 519.514587,491.401642 526.013062,489.795868 
	C548.953674,484.127167 559.833557,459.193085 548.180359,440.086853 
	C547.169250,438.428986 545.822388,436.975830 544.659912,435.464600 
	C526.612305,446.492371 508.362183,450.416473 490.396027,447.133820 
	C490.396027,443.126434 490.396027,439.047729 490.396027,434.059723 
	C497.828766,434.059723 505.262695,434.161530 512.692627,434.031494 
	C520.354004,433.897430 527.304749,431.676636 533.577087,426.349762 
	C520.330811,415.940399 505.026672,421.026550 490.465454,419.330627 
	C490.465454,415.072083 490.465454,410.883209 490.465454,406.245819 
	C508.538300,405.958038 526.622803,404.084503 542.822876,415.273651 
	C552.390076,404.711243 555.272949,392.658569 551.785095,379.412842 
	C548.134766,365.550262 538.993835,355.511505 524.878174,353.580841 
	C509.192810,351.435425 493.114777,352.160767 476.422913,351.610413 
	C476.422913,403.315643 476.422913,453.856537 476.422913,504.563538 
	C471.725037,504.563538 467.791565,504.563538 463.457825,504.563538 
	C463.457825,449.401245 463.457825,394.503296 463.457825,338.840881 
	C478.727356,338.840881 494.111267,338.840881 509.993774,338.841064 
z"/>
<path fill="#F5F6F6" opacity="1.000000" stroke="none" 
	d="
M588.618713,589.561401 
	C587.575928,590.833740 586.752075,591.811584 586.863098,591.679810 
	C589.555359,596.514221 592.914185,600.449402 594.020203,604.939514 
	C596.897888,616.621948 589.281677,626.100952 577.210693,626.947632 
	C575.552612,627.063965 573.883240,627.041687 572.219055,627.042908 
	C561.908264,627.050659 551.597412,627.046814 540.802246,627.046814 
	C540.802246,605.324036 540.802246,583.836853 540.802246,562.039734 
	C552.864685,562.039734 564.878052,561.237183 576.735107,562.255676 
	C589.720093,563.370972 595.282654,576.779114 588.618713,589.561401 
M555.777588,599.131531 
	C554.543762,599.977417 552.315002,600.747192 552.243469,601.682007 
	C551.880249,606.431458 552.076111,611.223633 552.076111,616.406677 
	C559.605286,616.406677 566.404419,616.531433 573.196899,616.371155 
	C579.830566,616.214478 582.798157,613.548035 582.826294,608.177917 
	C582.856079,602.487305 579.317139,599.230591 572.685181,599.097046 
	C567.367371,598.989929 562.045105,599.100830 555.777588,599.131531 
M555.880859,572.362183 
	C554.613647,573.192383 552.328674,573.937988 552.251404,574.867065 
	C551.871948,579.431335 552.079102,584.044373 552.079102,588.933838 
	C558.875183,588.933838 564.989563,589.051025 571.097351,588.900146 
	C576.951599,588.755493 580.048645,585.665588 579.977539,580.433594 
	C579.909973,575.466248 576.878662,572.491882 571.262817,572.301331 
	C566.453979,572.138123 561.633606,572.311890 555.880859,572.362183 
z"/>
<path fill="#F5F6F6" opacity="1.000000" stroke="none" 
	d="
M296.642944,582.407471 
	C294.793549,586.241577 293.028870,589.666992 291.560944,592.516357 
	C293.826965,595.798706 297.074982,598.945984 298.435028,602.765503 
	C302.523651,614.247681 295.830017,625.596008 283.693481,626.548889 
	C271.153961,627.533447 258.477020,626.767822 245.542496,626.767822 
	C245.542496,605.152771 245.542496,583.772156 245.542496,562.005920 
	C257.834412,562.005920 269.822662,561.439087 281.729797,562.178406 
	C291.960602,562.813599 297.299561,570.650085 296.642944,582.407471 
M261.775757,599.139465 
	C260.342712,599.261108 258.909698,599.382751 257.453918,599.506287 
	C257.453918,605.268127 257.453918,610.640503 257.453918,616.317200 
	C264.777740,616.317200 271.727905,616.448975 278.670593,616.277588 
	C284.783295,616.126587 287.676300,613.340149 287.723846,608.077209 
	C287.771667,602.785034 284.385406,599.270996 278.630249,599.082092 
	C273.333771,598.908264 268.025665,599.088623 261.775757,599.139465 
M260.778687,588.947510 
	C266.736176,588.808350 272.714020,588.921936 278.644318,588.444702 
	C282.869690,588.104614 284.984161,585.202087 285.090332,580.968933 
	C285.192505,576.893066 283.682281,573.175598 279.467896,572.841248 
	C272.149628,572.260620 264.752045,572.679932 257.184906,572.679932 
	C257.184906,577.472839 257.040710,581.939941 257.305084,586.382751 
	C257.358795,587.284973 258.953186,588.095398 260.778687,588.947510 
z"/>
<path fill="#F5F6F6" opacity="1.000000" stroke="none" 
	d="
M723.494690,593.906799 
	C733.053284,604.763306 742.332520,615.342712 752.483826,626.916443 
	C747.049377,626.916443 742.951721,627.162964 738.911255,626.790283 
	C737.381348,626.649170 735.681213,625.350952 734.574280,624.117493 
	C727.585571,616.329895 720.741760,608.412354 714.093323,600.815674 
	C701.908875,606.362793 705.871033,617.179077 705.006531,626.628174 
	C701.292419,626.628174 697.722717,626.628174 693.728027,626.628174 
	C693.728027,605.331848 693.728027,583.969482 693.728027,562.283203 
	C697.332214,562.283203 700.913391,562.283203 705.116089,562.283203 
	C705.116089,572.278870 705.116089,582.310913 705.116089,593.523560 
	C706.970032,591.968628 707.975525,591.288452 708.782410,590.423035 
	C716.046326,582.632385 723.420715,574.936890 730.449768,566.938599 
	C733.656982,563.289185 737.061646,561.269043 742.015259,561.979675 
	C744.274414,562.303711 746.618652,562.034729 749.751526,562.034729 
	C748.580322,563.560547 747.923157,564.608459 747.083435,565.480469 
	C739.580017,573.272888 731.977417,580.971863 724.596619,588.878174 
	C723.592163,589.954163 723.649536,592.021423 723.494690,593.906799 
z"/>
<path fill="#F7F7F8" opacity="1.000000" stroke="none" 
	d="
M659.822693,587.993530 
	C665.255005,601.030090 670.549255,613.711121 675.849548,626.406616 
	C675.168518,626.663208 674.875122,626.856079 674.570068,626.876770 
	C663.678528,627.615417 663.482361,627.687073 659.648926,617.525024 
	C658.069580,613.338318 656.025330,611.616272 651.355347,611.983826 
	C644.908569,612.491272 638.385132,612.277100 631.907593,612.030273 
	C628.899597,611.915710 627.195435,612.929138 626.356201,615.710571 
	C626.117004,616.503235 625.749390,617.256958 625.442871,618.029358 
	C621.502441,627.958862 621.502502,627.958862 610.196716,626.456726 
	C610.651611,625.014160 610.986511,623.588501 611.539368,622.253113 
	C619.287720,603.537598 627.288513,584.921875 634.686462,566.069397 
	C636.634766,561.104431 639.967346,562.226440 643.427612,561.967834 
	C646.825195,561.714111 649.307190,562.117249 650.726807,566.019104 
	C653.391235,573.342346 656.664551,580.444153 659.822693,587.993530 
M648.985779,590.526855 
	C646.969177,585.801880 644.952515,581.076904 642.575623,575.507874 
	C638.872986,584.868713 635.584717,593.181946 632.213928,601.703735 
	C639.719666,601.703735 646.262512,601.703735 653.461548,601.703735 
	C651.920471,597.907104 650.571228,594.583069 648.985779,590.526855 
z"/>
<path fill="#F7F7F8" opacity="1.000000" stroke="none" 
	d="
M330.757812,616.714600 
	C326.523010,627.519104 326.523010,627.519104 314.238647,626.623230 
	C316.576080,620.832031 318.777924,615.204590 321.110168,609.631775 
	C327.199493,595.081360 333.475281,580.607056 339.375275,565.980774 
	C340.784058,562.488342 342.819214,561.565247 346.152130,561.954773 
	C349.651642,562.363708 353.453674,560.626892 355.537781,565.883728 
	C363.307709,585.482727 371.577087,604.883728 379.641479,624.366211 
	C379.883026,624.949829 379.929474,625.614136 380.216187,626.921875 
	C376.662903,626.921875 373.388580,627.197571 370.204803,626.781006 
	C368.995758,626.622803 367.224213,625.005127 367.019806,623.825562 
	C365.145081,613.007263 358.445343,610.353638 348.539673,611.995117 
	C344.811859,612.612854 340.888428,612.362000 337.082031,612.100952 
	C333.695923,611.868591 331.677490,613.042603 330.757812,616.714600 
M339.708374,594.196777 
	C338.701965,596.593811 337.695526,598.990906 336.512695,601.808105 
	C344.008789,601.808105 350.857819,601.808105 358.351746,601.808105 
	C354.770996,593.108887 351.354797,584.809509 347.545990,575.556213 
	C344.733612,582.215210 342.357361,587.841675 339.708374,594.196777 
z"/>
<path fill="#F7F7F8" opacity="1.000000" stroke="none" 
	d="
M446.643799,597.190552 
	C450.836578,607.148193 454.858124,616.764221 458.865356,626.346130 
	C458.339111,626.611084 458.204254,626.730713 458.059326,626.744629 
	C447.013214,627.798096 446.834473,627.865356 442.846161,617.376587 
	C441.342804,613.422913 439.479218,611.643433 434.997162,611.966187 
	C428.536774,612.431458 422.010498,612.318970 415.530945,612.032776 
	C412.513031,611.899536 410.824036,612.786926 409.957153,615.589172 
	C409.615173,616.694641 409.052887,617.730713 408.611481,618.806824 
	C404.805725,628.084961 404.476166,628.255615 393.451782,626.238708 
	C395.339722,621.394226 397.118408,616.603516 399.063202,611.881165 
	C405.391144,596.515991 412.000244,581.261475 418.018555,565.776794 
	C419.972595,560.749146 423.562500,562.242981 426.954071,561.909180 
	C430.268768,561.582947 432.350037,562.412109 433.719543,565.976501 
	C437.711670,576.366760 442.186798,586.571472 446.643799,597.190552 
M432.385101,592.103455 
	C430.341766,587.017822 428.298431,581.932190 425.865509,575.876892 
	C422.190521,585.256714 419.003418,593.391235 415.699860,601.823059 
	C422.764404,601.823059 429.192627,601.823059 436.161957,601.823059 
	C434.934265,598.589844 433.833832,595.691711 432.385101,592.103455 
z"/>
<path fill="#F5F6F6" opacity="1.000000" stroke="none" 
	d="
M477.051178,576.010132 
	C477.054443,571.220703 477.054443,566.928894 477.054443,562.355225 
	C481.141144,562.355225 484.712708,562.355225 488.885803,562.355225 
	C488.885803,580.234375 488.885803,597.968262 488.885803,616.192139 
	C500.050323,616.192139 510.627991,616.192139 521.560852,616.192139 
	C521.560852,619.902161 521.560852,623.125977 521.560852,626.716919 
	C506.933350,626.716919 492.355133,626.716919 477.047913,626.716919 
	C477.047913,610.020325 477.047913,593.264038 477.051178,576.010132 
z"/>
<path fill="#F5F6F6" opacity="1.000000" stroke="none" 
	d="
M781.572876,582.121338 
	C781.493896,586.419434 781.414978,590.717468 781.348633,595.907227 
	C781.446289,599.901306 781.531372,603.003601 781.616455,606.105957 
	C781.616516,612.878052 781.616516,619.650085 781.616516,626.681030 
	C777.289001,626.681030 773.696167,626.681030 769.715576,626.681030 
	C769.715576,605.249878 769.715576,583.893616 769.715576,562.365417 
	C773.549194,562.365417 777.153564,562.365417 780.965637,563.095215 
	C781.306458,569.923767 781.439636,576.022583 781.572876,582.121338 
z"/>
<path fill="#4399BA" opacity="1.000000" stroke="none" 
	d="
M496.093597,365.941437 
	C499.028290,365.937561 501.494080,365.937561 504.794556,365.937561 
	C504.794556,374.042786 504.884338,381.782013 504.663940,389.512360 
	C504.640381,390.339081 502.855927,391.719788 501.805573,391.803406 
	C498.204437,392.090027 494.566376,391.913361 490.531677,391.913361 
	C490.531677,383.279816 490.531677,374.948914 490.531677,366.277557 
	C492.402405,366.155518 494.013580,366.050415 496.093597,365.941437 
z"/>
<path fill="#E1E4E4" opacity="1.000000" stroke="none" 
	d="
M411.368073,673.739319 
	C410.575562,671.525085 409.945404,669.672974 408.843079,666.433228 
	C406.973053,671.539368 405.684052,675.482361 404.052856,679.278381 
	C403.498199,680.569153 402.081329,681.489441 401.058411,682.578979 
	C400.161011,681.536926 398.824249,680.635071 398.439575,679.429321 
	C396.386383,672.993774 394.571198,666.482300 392.632111,659.855042 
	C396.424164,659.862061 396.420105,659.863342 398.408325,666.198853 
	C399.345184,669.184326 400.301331,672.163696 401.654846,676.423950 
	C403.485229,670.900146 404.845398,666.515869 406.428314,662.213623 
	C406.828461,661.126038 407.939667,660.300049 408.724121,659.353882 
	C409.529572,660.288208 410.659790,661.095642 411.083313,662.179260 
	C412.755798,666.458801 414.206635,670.824951 415.849365,675.468994 
	C420.208344,670.418762 417.631409,662.394958 423.730804,659.044312 
	C424.216156,659.255981 424.701508,659.467590 425.186859,659.679260 
	C423.044495,666.761658 420.947998,673.858765 418.688782,680.903687 
	C418.462585,681.608948 417.172821,682.507629 416.510925,682.409607 
	C415.587738,682.273010 414.426392,681.461121 414.012207,680.620361 
	C412.989288,678.543701 412.333649,676.286255 411.368073,673.739319 
z"/>
<path fill="#E1E4E4" opacity="1.000000" stroke="none" 
	d="
M457.399841,665.295898 
	C456.588440,660.351868 458.550323,658.753784 462.893799,659.385071 
	C464.356110,659.597656 465.880920,659.344788 467.375671,659.375732 
	C475.391144,659.541382 477.483215,663.018127 475.068817,669.991821 
	C475.539581,672.784668 477.158508,676.130737 476.155090,678.213257 
	C475.170624,680.256470 471.644440,681.675598 469.007904,682.174011 
	C465.510468,682.835144 461.793854,682.336975 457.411346,682.336975 
	C457.411346,676.617371 457.411346,671.188477 457.399841,665.295898 
M463.045807,672.357056 
	C462.249146,674.233459 461.452515,676.109863 460.334778,678.742554 
	C464.343903,678.742554 466.863831,679.080566 469.226166,678.616455 
	C470.653961,678.335999 471.837250,676.810852 473.130371,675.845032 
	C471.872223,674.652466 470.800049,672.959106 469.305206,672.403992 
	C467.716675,671.814087 465.727448,672.303284 463.045807,672.357056 
M465.488007,662.975952 
	C464.107880,663.092285 462.727722,663.208618 461.163361,663.340454 
	C461.306274,665.531982 461.410004,667.122559 461.545074,669.194153 
	C465.164581,667.853760 470.132874,671.481628 471.584991,666.192688 
	C472.580780,662.565674 468.706085,663.189758 465.488007,662.975952 
z"/>
<path fill="#E1E4E4" opacity="1.000000" stroke="none" 
	d="
M594.001160,678.946655 
	C588.518433,683.989441 582.216125,682.033936 575.912415,682.562317 
	C575.912415,674.785950 575.912415,667.538513 575.912415,659.336121 
	C582.454895,659.944275 589.464172,657.513611 594.713867,663.818298 
	C597.918884,667.667297 597.640381,673.002075 594.001160,678.946655 
M583.334839,662.963562 
	C582.086365,663.609436 579.810913,664.179871 579.757080,664.913452 
	C579.423523,669.457092 579.589355,674.037354 579.589355,678.513306 
	C589.718994,679.357666 592.679321,677.716248 593.060608,671.586975 
	C593.418152,665.839539 590.829773,663.308838 583.334839,662.963562 
z"/>
<path fill="#E1E4E4" opacity="1.000000" stroke="none" 
	d="
M439.693024,669.098511 
	C441.976257,669.098816 443.783051,669.098816 445.596039,669.098816 
	C445.502991,671.433838 445.502991,671.433838 436.358643,672.816284 
	C436.358643,674.642029 436.358643,676.523254 436.358643,679.111938 
	C439.920624,679.111938 443.366760,678.980225 446.791504,679.193115 
	C447.803467,679.256104 448.754944,680.291870 449.734192,680.881836 
	C448.844482,681.409546 447.969025,682.363098 447.062683,682.393372 
	C442.429535,682.548218 437.788483,682.464966 432.738068,682.464966 
	C432.738068,674.828735 432.738068,667.468994 432.738068,660.194092 
	C441.749634,657.985718 448.674103,659.119507 448.646606,662.981140 
	C444.707367,662.981140 440.759918,662.981140 436.251160,662.981140 
	C437.065491,665.465698 433.581085,669.170898 439.693024,669.098511 
z"/>
<path fill="#E1E4E4" opacity="1.000000" stroke="none" 
	d="
M637.967590,663.103760 
	C642.703613,671.019165 640.894409,678.780640 633.891968,681.888184 
	C628.572632,684.248840 622.355164,682.770691 619.102417,678.372253 
	C615.843811,673.965759 616.251709,666.707825 619.983215,662.698059 
	C623.882446,658.508301 630.423889,657.730591 635.447327,660.909607 
	C636.277649,661.435120 636.974426,662.171753 637.967590,663.103760 
M637.039490,670.582886 
	C635.895508,664.609314 632.803223,661.816406 627.921814,662.347839 
	C623.507874,662.828369 620.601135,666.155518 620.501953,670.840881 
	C620.403137,675.506775 623.373169,679.142029 627.618591,679.551697 
	C632.252747,679.998901 635.774231,676.945374 637.039490,670.582886 
z"/>
<path fill="#E1E4E4" opacity="1.000000" stroke="none" 
	d="
M499.407715,677.222839 
	C502.423065,678.068481 505.061096,679.255676 507.758942,679.412354 
	C509.061157,679.488037 510.476044,677.624817 511.839905,676.639526 
	C510.774323,675.506104 509.903748,673.963745 508.595184,673.339600 
	C506.842224,672.503540 504.720703,672.479858 502.810181,671.925537 
	C499.472046,670.956909 497.118378,668.950745 497.372986,665.186096 
	C497.626495,661.438049 500.213806,659.360657 503.635620,659.271240 
	C506.654419,659.192444 509.750061,660.054932 512.699280,660.896179 
	C513.337158,661.078125 513.494324,662.945374 513.872925,664.036255 
	C512.889526,663.965149 511.866058,664.039307 510.934052,663.781982 
	C510.007721,663.526184 509.053589,662.419800 508.320679,662.589478 
	C505.930756,663.142639 503.636353,664.108337 501.305206,664.915344 
	C502.989868,666.293091 504.622498,667.743225 506.386993,669.009766 
	C507.016266,669.461304 507.965698,669.465210 508.767883,669.677612 
	C512.498718,670.665222 515.893494,672.093201 515.672729,676.789490 
	C515.496521,680.539795 511.990662,683.111389 506.806946,682.916565 
	C504.072784,682.813843 501.222504,682.097717 498.702423,681.013123 
	C496.019958,679.858521 496.122162,678.185486 499.407715,677.222839 
z"/>
<path fill="#E1E4E4" opacity="1.000000" stroke="none" 
	d="
M566.120911,677.718323 
	C562.605652,682.374512 558.051086,683.852966 553.333496,682.138306 
	C548.621704,680.425903 547.557861,676.694458 547.754089,672.165161 
	C547.897644,668.852356 547.688049,665.523132 547.865601,662.213623 
	C547.912292,661.344482 548.813110,660.521179 549.321655,659.676819 
	C549.998596,660.541016 551.193298,661.366150 551.262146,662.276306 
	C551.549316,666.075073 551.443848,669.901489 551.585754,673.713928 
	C551.731873,677.639038 554.015808,679.330811 557.770996,679.200684 
	C561.357178,679.076538 563.281006,677.156616 563.322693,673.558105 
	C563.366882,669.742676 563.153442,665.918884 563.353882,662.114685 
	C563.401917,661.203003 564.643433,660.354309 565.336121,659.476685 
	C565.886230,660.324280 566.920166,661.179321 566.907104,662.018188 
	C566.827698,667.128296 566.510132,672.234741 566.120911,677.718323 
z"/>
<path fill="#4399BA" opacity="1.000000" stroke="none" 
	d="
M490.091309,473.648804 
	C490.085999,469.877747 490.085999,466.563141 490.085999,462.824951 
	C495.026917,462.824951 499.587372,462.824951 504.524841,462.824951 
	C504.524841,467.234894 504.524841,471.479462 504.524841,476.601257 
	C500.388092,476.601257 496.141479,476.705902 491.911255,476.489807 
	C491.267456,476.456909 490.699615,474.937256 490.091309,473.648804 
z"/>
<path fill="#E1E4E4" opacity="1.000000" stroke="none" 
	d="
M525.578125,659.513916 
	C529.673401,659.471802 533.337158,659.312317 536.988770,659.457275 
	C538.031982,659.498718 539.040100,660.422791 540.064331,660.942139 
	C538.997009,661.595947 538.001831,662.513184 536.842407,662.830627 
	C535.644653,663.158569 534.287292,662.903625 532.464539,662.903625 
	C532.464539,668.606812 532.571960,673.887878 532.379211,679.158081 
	C532.337708,680.293884 531.213501,681.390137 530.588013,682.504578 
	C529.984619,681.358887 528.903442,680.230896 528.860229,679.064392 
	C528.669556,673.917175 528.777832,668.758789 528.777832,663.970642 
	C526.277649,662.977539 523.949158,662.052612 521.620667,661.127686 
	C522.794434,660.589172 523.968140,660.050720 525.578125,659.513916 
z"/>
<path fill="#E1E4E4" opacity="1.000000" stroke="none" 
	d="
M608.892151,665.273071 
	C608.866638,670.395996 608.946716,675.062317 608.728333,679.714539 
	C608.682190,680.696106 607.541748,681.626282 606.905518,682.580139 
	C606.267273,681.661194 605.106873,680.758972 605.076660,679.820496 
	C604.900024,674.332336 604.866577,668.831116 605.075928,663.345398 
	C605.125610,662.044189 606.289124,660.785400 606.940308,659.507141 
	C607.588684,660.775757 608.286560,662.022766 608.856995,663.325562 
	C609.040833,663.745422 608.889465,664.311951 608.892151,665.273071 
z"/>
<path fill="#091519" opacity="1.000000" stroke="none" 
	d="
M781.919312,581.851807 
	C781.439636,576.022583 781.306458,569.923767 781.224609,563.349915 
	C781.849243,564.108154 782.917908,565.344910 782.909302,566.574158 
	C782.874268,571.578125 782.509216,576.579773 781.919312,581.851807 
z"/>
<path fill="#091519" opacity="1.000000" stroke="none" 
	d="
M781.951172,605.843994 
	C781.531372,603.003601 781.446289,599.901306 781.482300,596.347900 
	C781.830994,599.125244 782.058411,602.353699 781.951172,605.843994 
z"/>
<path fill="#112127" opacity="1.000000" stroke="none" 
	d="
M556.251221,599.123230 
	C562.045105,599.100830 567.367371,598.989929 572.685181,599.097046 
	C579.317139,599.230591 582.856079,602.487305 582.826294,608.177917 
	C582.798157,613.548035 579.830566,616.214478 573.196899,616.371155 
	C566.404419,616.531433 559.605286,616.406677 552.076111,616.406677 
	C552.076111,611.223633 551.880249,606.431458 552.243469,601.682007 
	C552.315002,600.747192 554.543762,599.977417 556.251221,599.123230 
z"/>
<path fill="#1A282F" opacity="1.000000" stroke="none" 
	d="
M556.349609,572.349426 
	C561.633606,572.311890 566.453979,572.138123 571.262817,572.301331 
	C576.878662,572.491882 579.909973,575.466248 579.977539,580.433594 
	C580.048645,585.665588 576.951599,588.755493 571.097351,588.900146 
	C564.989563,589.051025 558.875183,588.933838 552.079102,588.933838 
	C552.079102,584.044373 551.871948,579.431335 552.251404,574.867065 
	C552.328674,573.937988 554.613647,573.192383 556.349609,572.349426 
z"/>
<path fill="#112127" opacity="1.000000" stroke="none" 
	d="
M262.249207,599.126221 
	C268.025665,599.088623 273.333771,598.908264 278.630249,599.082092 
	C284.385406,599.270996 287.771667,602.785034 287.723846,608.077209 
	C287.676300,613.340149 284.783295,616.126587 278.670593,616.277588 
	C271.727905,616.448975 264.777740,616.317200 257.453918,616.317200 
	C257.453918,610.640503 257.453918,605.268127 257.453918,599.506287 
	C258.909698,599.382751 260.342712,599.261108 262.249207,599.126221 
z"/>
<path fill="#1A282F" opacity="1.000000" stroke="none" 
	d="
M260.308014,588.947815 
	C258.953186,588.095398 257.358795,587.284973 257.305084,586.382751 
	C257.040710,581.939941 257.184906,577.472839 257.184906,572.679932 
	C264.752045,572.679932 272.149628,572.260620 279.467896,572.841248 
	C283.682281,573.175598 285.192505,576.893066 285.090332,580.968933 
	C284.984161,585.202087 282.869690,588.104614 278.644318,588.444702 
	C272.714020,588.921936 266.736176,588.808350 260.308014,588.947815 
z"/>
<path fill="#1A282F" opacity="1.000000" stroke="none" 
	d="
M649.103882,590.892944 
	C650.571228,594.583069 651.920471,597.907104 653.461548,601.703735 
	C646.262512,601.703735 639.719666,601.703735 632.213928,601.703735 
	C635.584717,593.181946 638.872986,584.868713 642.575623,575.507874 
	C644.952515,581.076904 646.969177,585.801880 649.103882,590.892944 
z"/>
<path fill="#1A282F" opacity="1.000000" stroke="none" 
	d="
M339.844727,593.832397 
	C342.357361,587.841675 344.733612,582.215210 347.545990,575.556213 
	C351.354797,584.809509 354.770996,593.108887 358.351746,601.808105 
	C350.857819,601.808105 344.008789,601.808105 336.512695,601.808105 
	C337.695526,598.990906 338.701965,596.593811 339.844727,593.832397 
z"/>
<path fill="#1A282F" opacity="1.000000" stroke="none" 
	d="
M432.559265,592.448486 
	C433.833832,595.691711 434.934265,598.589844 436.161957,601.823059 
	C429.192627,601.823059 422.764404,601.823059 415.699860,601.823059 
	C419.003418,593.391235 422.190521,585.256714 425.865509,575.876892 
	C428.298431,581.932190 430.341766,587.017822 432.559265,592.448486 
z"/>
<path fill="#1A282F" opacity="1.000000" stroke="none" 
	d="
M463.479492,672.339172 
	C465.727448,672.303284 467.716675,671.814087 469.305206,672.403992 
	C470.800049,672.959106 471.872223,674.652466 473.130371,675.845032 
	C471.837250,676.810852 470.653961,678.335999 469.226166,678.616455 
	C466.863831,679.080566 464.343903,678.742554 460.334778,678.742554 
	C461.452515,676.109863 462.249146,674.233459 463.479492,672.339172 
z"/>
<path fill="#1A282F" opacity="1.000000" stroke="none" 
	d="
M465.927307,662.977234 
	C468.706085,663.189758 472.580780,662.565674 471.584991,666.192688 
	C470.132874,671.481628 465.164581,667.853760 461.545074,669.194153 
	C461.410004,667.122559 461.306274,665.531982 461.163361,663.340454 
	C462.727722,663.208618 464.107880,663.092285 465.927307,662.977234 
z"/>
<path fill="#1A282F" opacity="1.000000" stroke="none" 
	d="
M583.788025,662.963867 
	C590.829773,663.308838 593.418152,665.839539 593.060608,671.586975 
	C592.679321,677.716248 589.718994,679.357666 579.589355,678.513306 
	C579.589355,674.037354 579.423523,669.457092 579.757080,664.913452 
	C579.810913,664.179871 582.086365,663.609436 583.788025,662.963867 
z"/>
<path fill="#1A282F" opacity="1.000000" stroke="none" 
	d="
M637.038696,670.983521 
	C635.774231,676.945374 632.252747,679.998901 627.618591,679.551697 
	C623.373169,679.142029 620.403137,675.506775 620.501953,670.840881 
	C620.601135,666.155518 623.507874,662.828369 627.921814,662.347839 
	C632.803223,661.816406 635.895508,664.609314 637.038696,670.983521 
z"/>
</svg>